<?xml version="1.0" encoding="utf-8"?>
<!-- Generator: Adobe Illustrator 15.0.2, SVG Export Plug-In . SVG Version: 6.00 Build 0)  -->
<!DOCTYPE svg PUBLIC "-//W3C//DTD SVG 1.1//EN" "http://www.w3.org/Graphics/SVG/1.1/DTD/svg11.dtd">
<svg version="1.1"
	 id="svg2" xmlns:cc="http://creativecommons.org/ns#" xmlns:dc="http://purl.org/dc/elements/1.1/" xmlns:inkscape="http://www.inkscape.org/namespaces/inkscape" xmlns:rdf="http://www.w3.org/1999/02/22-rdf-syntax-ns#" xmlns:sodipodi="http://sodipodi.sourceforge.net/DTD/sodipodi-0.dtd" xmlns:svg="http://www.w3.org/2000/svg"
	 xmlns="http://www.w3.org/2000/svg" xmlns:xlink="http://www.w3.org/1999/xlink" x="0px" y="0px" width="19.75px" height="19.5px"
	 viewBox="12.25 12.5 19.75 19.5" enable-background="new 12.25 12.5 19.75 19.5" xml:space="preserve">
<g id="edit_x5F_badge">
	<path fill="#FFFFFF" d="M13,22c0-4.973,4.027-9,9-9l0,0c4.971,0,8.998,4.027,9,9l0,0c-0.002,4.971-4.029,8.998-9,9l0,0
		C17.027,30.998,13,26.971,13,22L13,22z M15.116,22c0.008,3.799,3.083,6.874,6.884,6.883l0,0c3.799-0.009,6.874-3.084,6.883-6.883
		l0,0c-0.009-3.801-3.084-6.876-6.883-6.885l0,0C18.199,15.124,15.124,18.199,15.116,22L15.116,22z"/>
	<polygon fill="#FFFFFF" points="21,26 18,26 18,23 	"/>
	
		<rect x="19.464" y="18.878" transform="matrix(0.7071 -0.7071 0.7071 0.7071 -8.1124 22.4141)" fill="#FFFFFF" width="7.071" height="4.243"/>
</g>
</svg>
