<?xml version="1.0" encoding="utf-8"?>
<!-- Generator: Adobe Illustrator 15.0.2, SVG Export Plug-In . SVG Version: 6.00 Build 0)  -->
<!DOCTYPE svg PUBLIC "-//W3C//DTD SVG 1.1//EN" "http://www.w3.org/Graphics/SVG/1.1/DTD/svg11.dtd">
<svg version="1.1"
	 id="svg2" xmlns:cc="http://creativecommons.org/ns#" xmlns:dc="http://purl.org/dc/elements/1.1/" xmlns:inkscape="http://www.inkscape.org/namespaces/inkscape" xmlns:rdf="http://www.w3.org/1999/02/22-rdf-syntax-ns#" xmlns:sodipodi="http://sodipodi.sourceforge.net/DTD/sodipodi-0.dtd" xmlns:svg="http://www.w3.org/2000/svg"
	 xmlns="http://www.w3.org/2000/svg" xmlns:xlink="http://www.w3.org/1999/xlink" x="0px" y="0px" width="19.75px" height="19.5px"
	 viewBox="0 0 19.75 19.5" enable-background="new 0 0 19.75 19.5" xml:space="preserve">
<g>
	<path fill="#338ADC" d="M16.258,3.514C12.813-0.011,7.165-0.077,3.639,3.366c-3.525,3.446-3.592,9.096-0.146,12.62
		c3.445,3.523,9.095,3.593,12.619,0.146C19.637,12.688,19.702,7.039,16.258,3.514z M15.041,15.021
		c-2.936,2.86-7.633,2.807-10.497-0.123C1.68,11.964,1.732,7.266,4.665,4.402c2.935-2.863,7.63-2.811,10.496,0.123
		C18.023,7.457,17.971,12.156,15.041,15.021z"/>
	<path fill="#338ADC" d="M12.742,7.346L12.33,6.928c-0.305-0.313-0.643-0.037-0.725,0.041L9.887,8.645L8.182,6.893
		C8.055,6.78,7.768,6.592,7.475,6.881L7.052,7.289C6.738,7.596,7.018,7.93,7.094,8.016L8.77,9.736l-1.754,1.72
		c-0.328,0.313-0.109,0.592-0.043,0.664l0.471,0.481c0.068,0.064,0.334,0.285,0.662-0.035l1.754-1.711l1.716,1.759
		c0.313,0.323,0.592,0.104,0.667,0.036l0.48-0.471c0.063-0.065,0.285-0.332-0.033-0.658l-1.715-1.758l1.75-1.711
		C12.843,7.928,13.029,7.643,12.742,7.346z"/>
</g>
</svg>