<?xml version="1.0" encoding="utf-8"?>
<!-- Generator: Adobe Illustrator 15.0.2, SVG Export Plug-In . SVG Version: 6.00 Build 0)  -->
<!DOCTYPE svg PUBLIC "-//W3C//DTD SVG 1.1//EN" "http://www.w3.org/Graphics/SVG/1.1/DTD/svg11.dtd">
<svg version="1.1" id="Capa_1" xmlns="http://www.w3.org/2000/svg" xmlns:xlink="http://www.w3.org/1999/xlink" x="0px" y="0px"
	 width="120px" height="120px" viewBox="82 384.75 90 90" enable-background="new 84 384.75 61.5 62.25"
	 xml:space="preserve">
<g>
	<path fill="none" stroke="#338ADC" stroke-width="5" stroke-miterlimit="10" d="M114.75,386.925c-15.99,0-28.95,12.961-28.95,28.95
		s12.96,28.95,28.95,28.95c15.989,0,28.95-12.961,28.95-28.95S130.739,386.925,114.75,386.925z"/>
	<path fill="#338ADC" stroke="#338ADC" stroke-width="5" stroke-miterlimit="10" d="M127.317,405.805
		c0,0-12.771,22.242-12.991,22.448c-0.729,0.684-1.875,0.646-2.557-0.083l-8.273-7.63c-0.684-0.729-0.646-1.875,0.084-2.559
		c0.729-0.683,1.875-0.646,2.557,0.083l6.474,5.971l11.571-20.043c0.499-0.864,1.606-1.161,2.472-0.662
		C127.52,403.832,127.816,404.939,127.317,405.805z"/>
</g>
</svg>
