<?xml version="1.0" encoding="utf-8"?>
<!-- Generator: Adobe Illustrator 15.0.2, SVG Export Plug-In . SVG Version: 6.00 Build 0)  -->
<!DOCTYPE svg PUBLIC "-//W3C//DTD SVG 1.1//EN" "http://www.w3.org/Graphics/SVG/1.1/DTD/svg11.dtd">
<svg version="1.1"
	 id="svg2" xmlns:cc="http://creativecommons.org/ns#" xmlns:dc="http://purl.org/dc/elements/1.1/" xmlns:inkscape="http://www.inkscape.org/namespaces/inkscape" xmlns:rdf="http://www.w3.org/1999/02/22-rdf-syntax-ns#" xmlns:sodipodi="http://sodipodi.sourceforge.net/DTD/sodipodi-0.dtd" xmlns:svg="http://www.w3.org/2000/svg"
	 xmlns="http://www.w3.org/2000/svg" xmlns:xlink="http://www.w3.org/1999/xlink" x="0px" y="0px" width="19.75px" height="19.5px"
	 viewBox="0 0 19.75 19.5" enable-background="new 0 0 19.75 19.5" xml:space="preserve">
<g>
	<path fill="#338ADC" stroke="#338ADC" stroke-width="0.70" stroke-miterlimit="10" d="M16.258,3.514
		C12.813-0.011,7.166-0.077,3.639,3.366c-3.525,3.446-3.592,9.096-0.146,12.62c3.445,3.523,9.095,3.593,12.619,0.146
		C19.637,12.688,19.703,7.039,16.258,3.514z M15.041,15.021c-2.936,2.86-7.632,2.807-10.497-0.123
		C1.68,11.964,1.733,7.266,4.666,4.402C7.6,1.539,12.295,1.592,15.162,4.525C18.023,7.457,17.971,12.156,15.041,15.021z"/>
	<path fill="#338ADC" stroke="#338ADC" stroke-width="0.70" stroke-miterlimit="10" d="M13.682,6.196l-0.575-0.583
		c-0.424-0.438-0.896-0.052-1.01,0.057L9.699,8.008L7.32,5.564c-0.177-0.157-0.577-0.42-0.986-0.017L5.744,6.117
		C5.306,6.544,5.696,7.011,5.803,7.13l2.338,2.401l-2.447,2.399c-0.458,0.438-0.153,0.825-0.06,0.927l0.657,0.671
		c0.095,0.09,0.466,0.398,0.924-0.049l2.446-2.387l2.396,2.454c0.436,0.45,0.825,0.145,0.929,0.049l0.671-0.656
		c0.086-0.09,0.397-0.462-0.047-0.918L11.215,9.57l2.443-2.388C13.824,7.008,14.083,6.61,13.682,6.196z"/>
</g>
</svg>
